<mxfile host="app.diagrams.net" modified="2024-05-11T17:10:14.737Z" agent="Mozilla/5.0 (Macintosh; Intel Mac OS X 10_15_7) AppleWebKit/537.36 (KHTML, like Gecko) Chrome/124.0.0.0 Safari/537.36" etag="zYvTKSkhCOUV7RQ6i5WD" version="24.4.0" type="device">
  <diagram name="ページ1" id="eJaOOltc7FCNzaEIWHsW">
    <mxGraphModel dx="954" dy="511" grid="1" gridSize="10" guides="1" tooltips="1" connect="1" arrows="1" fold="1" page="1" pageScale="1" pageWidth="827" pageHeight="1169" math="1" shadow="0">
      <root>
        <mxCell id="0" />
        <mxCell id="1" parent="0" />
        <mxCell id="s62-F_h9Qr9zbdDogR_A-4" value="" style="ellipse;whiteSpace=wrap;html=1;aspect=fixed;fillColor=#f8cecc;strokeColor=#b85450;" vertex="1" parent="1">
          <mxGeometry x="629" y="160" width="20" height="20" as="geometry" />
        </mxCell>
        <mxCell id="s62-F_h9Qr9zbdDogR_A-5" value="" style="ellipse;whiteSpace=wrap;html=1;aspect=fixed;fillColor=#dae8fc;strokeColor=#6c8ebf;" vertex="1" parent="1">
          <mxGeometry x="669" y="170" width="20" height="20" as="geometry" />
        </mxCell>
        <mxCell id="s62-F_h9Qr9zbdDogR_A-6" value="" style="ellipse;whiteSpace=wrap;html=1;aspect=fixed;fillColor=#d5e8d4;strokeColor=#82b366;" vertex="1" parent="1">
          <mxGeometry x="619" y="190" width="20" height="20" as="geometry" />
        </mxCell>
        <mxCell id="s62-F_h9Qr9zbdDogR_A-7" value="" style="ellipse;whiteSpace=wrap;html=1;aspect=fixed;fillColor=#ffe6cc;strokeColor=#d79b00;" vertex="1" parent="1">
          <mxGeometry x="659" y="200" width="20" height="20" as="geometry" />
        </mxCell>
        <mxCell id="s62-F_h9Qr9zbdDogR_A-9" value="" style="ellipse;whiteSpace=wrap;html=1;aspect=fixed;fillColor=#f8cecc;strokeColor=#b85450;" vertex="1" parent="1">
          <mxGeometry x="433" y="164" width="20" height="20" as="geometry" />
        </mxCell>
        <mxCell id="s62-F_h9Qr9zbdDogR_A-10" value="" style="ellipse;whiteSpace=wrap;html=1;aspect=fixed;fillColor=#dae8fc;strokeColor=#6c8ebf;" vertex="1" parent="1">
          <mxGeometry x="473" y="174" width="20" height="20" as="geometry" />
        </mxCell>
        <mxCell id="s62-F_h9Qr9zbdDogR_A-11" value="" style="ellipse;whiteSpace=wrap;html=1;aspect=fixed;fillColor=#d5e8d4;strokeColor=#82b366;" vertex="1" parent="1">
          <mxGeometry x="423" y="194" width="20" height="20" as="geometry" />
        </mxCell>
        <mxCell id="s62-F_h9Qr9zbdDogR_A-14" value="" style="ellipse;whiteSpace=wrap;html=1;aspect=fixed;fillColor=#f8cecc;strokeColor=#b85450;" vertex="1" parent="1">
          <mxGeometry x="243" y="166" width="20" height="20" as="geometry" />
        </mxCell>
        <mxCell id="s62-F_h9Qr9zbdDogR_A-15" value="" style="ellipse;whiteSpace=wrap;html=1;aspect=fixed;fillColor=#dae8fc;strokeColor=#6c8ebf;" vertex="1" parent="1">
          <mxGeometry x="283" y="174" width="20" height="20" as="geometry" />
        </mxCell>
        <mxCell id="s62-F_h9Qr9zbdDogR_A-17" value="" style="ellipse;whiteSpace=wrap;html=1;aspect=fixed;fillColor=#f8cecc;strokeColor=#b85450;" vertex="1" parent="1">
          <mxGeometry x="120" y="170" width="20" height="20" as="geometry" />
        </mxCell>
        <mxCell id="s62-F_h9Qr9zbdDogR_A-18" value="" style="edgeStyle=none;orthogonalLoop=1;jettySize=auto;html=1;rounded=0;" edge="1" parent="1">
          <mxGeometry width="100" relative="1" as="geometry">
            <mxPoint x="600" y="183.5" as="sourcePoint" />
            <mxPoint x="520" y="183.5" as="targetPoint" />
            <Array as="points" />
          </mxGeometry>
        </mxCell>
        <mxCell id="s62-F_h9Qr9zbdDogR_A-19" value="" style="edgeStyle=none;orthogonalLoop=1;jettySize=auto;html=1;rounded=0;" edge="1" parent="1">
          <mxGeometry width="100" relative="1" as="geometry">
            <mxPoint x="400" y="181.5" as="sourcePoint" />
            <mxPoint x="320" y="181.5" as="targetPoint" />
            <Array as="points" />
          </mxGeometry>
        </mxCell>
        <mxCell id="s62-F_h9Qr9zbdDogR_A-20" value="" style="edgeStyle=none;orthogonalLoop=1;jettySize=auto;html=1;rounded=0;" edge="1" parent="1">
          <mxGeometry width="100" relative="1" as="geometry">
            <mxPoint x="230" y="179.5" as="sourcePoint" />
            <mxPoint x="150" y="179.5" as="targetPoint" />
            <Array as="points" />
          </mxGeometry>
        </mxCell>
        <mxCell id="s62-F_h9Qr9zbdDogR_A-24" value="$$\pi=\pi_3$$" style="text;html=1;align=center;verticalAlign=middle;resizable=0;points=[];autosize=1;strokeColor=none;fillColor=none;" vertex="1" parent="1">
          <mxGeometry x="600" y="238" width="100" height="30" as="geometry" />
        </mxCell>
        <mxCell id="s62-F_h9Qr9zbdDogR_A-25" value="$$\pi_2$$" style="text;html=1;align=center;verticalAlign=middle;resizable=0;points=[];autosize=1;strokeColor=none;fillColor=none;" vertex="1" parent="1">
          <mxGeometry x="420" y="238" width="80" height="30" as="geometry" />
        </mxCell>
        <mxCell id="s62-F_h9Qr9zbdDogR_A-26" value="$$\pi_1$$" style="text;html=1;align=center;verticalAlign=middle;resizable=0;points=[];autosize=1;strokeColor=none;fillColor=none;" vertex="1" parent="1">
          <mxGeometry x="230" y="238" width="80" height="30" as="geometry" />
        </mxCell>
        <mxCell id="s62-F_h9Qr9zbdDogR_A-27" value="$$\pi_0$$" style="text;html=1;align=center;verticalAlign=middle;resizable=0;points=[];autosize=1;strokeColor=none;fillColor=none;" vertex="1" parent="1">
          <mxGeometry x="90" y="238" width="80" height="30" as="geometry" />
        </mxCell>
      </root>
    </mxGraphModel>
  </diagram>
</mxfile>
